# Blender 5.1.0
# www.blender.org
mtllib vending_machine_1.mtl
o Vending_machine_01
v -0.488180 0.000000 -0.622846
v -1.688180 0.000000 -0.622846
v -0.488180 0.000000 0.077154
v -1.688180 0.000000 0.077154
v -0.488180 1.800000 -0.622846
v -1.688180 1.800000 -0.622846
v -0.488180 1.800000 0.077154
v -1.688180 1.800000 0.077154
vn -0.0000 -1.0000 -0.0000
vn -0.0000 1.0000 -0.0000
vn -0.0000 -0.0000 -1.0000
vn -1.0000 -0.0000 -0.0000
vn -0.0000 -0.0000 1.0000
vn 1.0000 -0.0000 -0.0000
vt 0.519629 0.777603
vt 0.519629 0.994428
vt 0.985514 0.994428
vt 0.985514 0.777603
vt 0.531507 0.009416
vt 0.728813 0.009416
vt 0.728813 0.751751
vt 0.531507 0.751751
vt 0.756048 0.006480
vt 0.993385 0.006480
vt 0.993385 0.758800
vt 0.756048 0.758800
vt 0.009130 0.008623
vt 0.506691 0.008623
vt 0.506691 0.994041
vt 0.009130 0.994041
vt 0.993385 0.006480
vt 0.756048 0.006480
vt 0.756048 0.758800
vt 0.993385 0.758800
s 1
usemtl Vending_machine_01
f 1/1/1 3/2/1 4/3/1
f 4/3/1 2/4/1 1/1/1
f 5/1/2 6/4/2 8/3/2
f 8/3/2 7/2/2 5/1/2
f 1/5/3 2/6/3 6/7/3
f 6/7/3 5/8/3 1/5/3
f 2/9/4 4/10/4 8/11/4
f 8/11/4 6/12/4 2/9/4
f 4/13/5 3/14/5 7/15/5
f 7/15/5 8/16/5 4/13/5
f 3/17/6 1/18/6 5/19/6
f 5/19/6 7/20/6 3/17/6
